<?xml version="1.0" standalone="no"?><!DOCTYPE svg PUBLIC "-//W3C//DTD SVG 1.1//EN" "http://www.w3.org/Graphics/SVG/1.1/DTD/svg11.dtd"><svg width="1200" height="775" version="1.1" xmlns="http://www.w3.org/2000/svg" xmlns:xlink="http://www.w3.org/1999/xlink"><defs xmlns="http://www.w3.org/1999/xhtml"><style type="text/css"><![CDATA[
body { font-family: Arial, sans-serif; }
.node, .link, .legendCell { stroke: rgb(51, 51, 51); }
.link:hover { stroke-opacity: 0.5 !important; }
.node { stroke-opacity: 0.75; }
.node rect { shape-rendering: crispEdges; }
.axis--x path { display: none; }
.axis--x line { opacity: 1; stroke: rgb(221, 221, 221); stroke-dasharray: 2px, 3px; stroke-width: 1px; }
.axis--x { font-weight: normal; }
#axis--school path { opacity: 0.5; stroke: rgb(51, 51, 51); stroke-width: 1px; }
.chartLabel { font-weight: bold; font-size: 12px; fill: rgb(51, 51, 51); text-anchor: start; }
.chartTitle { font-weight: bold; fill: rgb(51, 51, 51); }
.chartSubTitle { font-size: 14px; }]]></style></defs><g transform="translate(60,150)"><g class="marks"><rect x="-60" y="-150" width="1200" height="775" style="fill: rgb(255, 255, 255);"/><g class="axis" id="axis--school" transform="translate(0,-18.75)" fill="none" font-size="10" font-family="sans-serif" text-anchor="middle" style="dominant-baseline: central;"><path class="domain" stroke="#000" d="M40,0V0.5.5H1125.5V0" transform="translate(-15, 0)" marker-end="url(#arrowhead)"/><text class="chartLabel" x="-10" y="-5" dy="0.32em">Time</text></g><g class="axis axis--x" id="axis--year" transform="translate(0, 0)" fill="none" font-size="10" font-family="sans-serif" text-anchor="middle"><path class="domain" stroke="#000" d="M0.5,600V0.5H1135.5V600"/><g class="tick" opacity="1" transform="translate(131.5,0)"><line stroke="#000" y2="600"/><text fill="#000" y="-45" dy="0em">Freshman Year</text></g><g class="tick" opacity="1" transform="translate(422.5,0)"><line stroke="#000" y2="600"/><text fill="#000" y="-45" dy="0em">Sophomore</text></g><g class="tick" opacity="1" transform="translate(713.5,0)"><line stroke="#000" y2="600"/><text fill="#000" y="-45" dy="0em">Junior</text></g><g class="tick" opacity="1" transform="translate(1004.5,0)"><line stroke="#000" y2="600"/><text fill="#000" y="-45" dy="0em">Senior</text></g></g><g><g class="axis axis--x" id="axis--Freshman" transform="translate(44,-25.3125)" fill="none" font-size="10" font-family="sans-serif" text-anchor="middle"><path class="domain" stroke="#000" d="M0.5,0V0.5H175.5V0"/><g class="tick" opacity="1" transform="translate(52.5,0)"><line stroke="#000" y2="0"/><text fill="#000" y="-6" dy="0em">1 Semester</text></g><g class="tick" opacity="1" transform="translate(122.5,0)"><line stroke="#000" y2="0"/><text fill="#000" y="-6" dy="0em">2 Semester</text></g></g><g class="axis axis--x" id="axis--Sophomore" transform="translate(335,-25.3125)" fill="none" font-size="10" font-family="sans-serif" text-anchor="middle"><path class="domain" stroke="#000" d="M0.5,0V0.5H175.5V0"/><g class="tick" opacity="1" transform="translate(52.5,0)"><line stroke="#000" y2="0"/><text fill="#000" y="-6" dy="0em">1st</text></g><g class="tick" opacity="1" transform="translate(122.5,0)"><line stroke="#000" y2="0"/><text fill="#000" y="-6" dy="0em">2nd</text></g></g><g class="axis axis--x" id="axis--Junior" transform="translate(626,-25.3125)" fill="none" font-size="10" font-family="sans-serif" text-anchor="middle"><path class="domain" stroke="#000" d="M0.5,0V0.5H175.5V0"/><g class="tick" opacity="1" transform="translate(52.5,0)"><line stroke="#000" y2="0"/><text fill="#000" y="-6" dy="0em">1st</text></g><g class="tick" opacity="1" transform="translate(122.5,0)"><line stroke="#000" y2="0"/><text fill="#000" y="-6" dy="0em">2nd</text></g></g><g class="axis axis--x" id="axis--Senior" transform="translate(917,-25.3125)" fill="none" font-size="10" font-family="sans-serif" text-anchor="middle"><path class="domain" stroke="#000" d="M0.5,0V0.5H175.5V0"/><g class="tick" opacity="1" transform="translate(52.5,0)"><line stroke="#000" y2="0"/><text fill="#000" y="-6" dy="0em">1st</text></g><g class="tick" opacity="1" transform="translate(122.5,0)"><line stroke="#000" y2="0"/><text fill="#000" y="-6" dy="0em">2nd</text></g></g></g><g class="axis axis--y" transform="translate(-15, 0)" fill="none" font-size="10" font-family="sans-serif" text-anchor="end"><path class="domain" stroke="#000" d="M-6,600.5H0.5V0.5H-6"/><g class="tick" opacity="1" transform="translate(0,600.5)"><line stroke="#000" x2="-6"/><text fill="#000" x="-9" dy="0.32em">1000</text></g><g class="tick" opacity="1" transform="translate(0,450.5)"><line stroke="#000" x2="-6"/><text fill="#000" x="-9" dy="0.32em">2000</text></g><g class="tick" opacity="1" transform="translate(0,300.5)"><line stroke="#000" x2="-6"/><text fill="#000" x="-9" dy="0.32em">3000</text></g><g class="tick" opacity="1" transform="translate(0,150.5)"><line stroke="#000" x2="-6"/><text fill="#000" x="-9" dy="0.32em">4000</text></g><g class="tick" opacity="1" transform="translate(0,0.5)"><line stroke="#000" x2="-6"/><text fill="#000" x="-9" dy="0.32em">5000</text></g><text class="chartLabel" x="6" dy="0.71em">Course Level +-500</text></g><g class="textual"><text class="chartTitle" font-family="Arial" font-weight="bolder" font-size="16px" x="-10" y="-130" dy="0.35em">My College Courses and the Prerequisite Relationships Between Them.</text><text class="chartSubTitle" font-family="Arial" x="-10" y="-108" dy="0.35em" transform="translate(0, -7.609375)"><tspan x="-10" y="-99.984375" dy="0.35em">Each rectangle is a class I took, positioned in the semester I took it. The links between classes show the</tspan><tspan x="-10" y="-99.984375" dy="1.4500000000000002em">requirements and progression to take higher level classes.</tspan></text><text x="-10" y="-72.6875" dy="0.35em" font-size="10px" font-family="Arial">- Ryan Larson</text></g><text x="952" y="-130" dy="0.35em" font-family="Arial" font-weight="bolder">Course Credit</text><g font-family="sans-serif" font-size="11" text-anchor="start" opacity="1"><g transform="translate(952,-115)"><rect class="legendCell" x="0" width="35" height="19" fill="#33a02c"/><text class="legendText" x="-6" y="9.5" dy="0.35em" text-anchor="end" transform="translate(0, -5.890625)"><tspan x="-6" y="9.5" dy="0.35em">Informatics</tspan><tspan x="-6" y="9.5" dy="1.4500000000000002em">Major</tspan></text></g><g transform="translate(1022,-115)"><rect class="legendCell" x="0" width="35" height="19" fill="#b2df8a"/><text class="legendText" x="40" y="9.5" dy="0.35em" transform="translate(0, -5.890625)"><tspan x="40" y="9.5" dy="0.35em">Comp Sci</tspan><tspan x="40" y="9.5" dy="1.4500000000000002em">Minor</tspan></text></g><g transform="translate(952,-89)"><rect class="legendCell" x="0" width="35" height="19" fill="#1f78b4"/><text class="legendText" x="-6" y="9.5" dy="0.35em" text-anchor="end" transform="translate(0, -5.890625)"><tspan x="-6" y="9.5" dy="0.35em">Psychology</tspan><tspan x="-6" y="9.5" dy="1.4500000000000002em">Minor</tspan></text></g><g transform="translate(1022,-89)"><rect class="legendCell" x="0" width="35" height="19" fill="#a6cee3"/><text class="legendText" x="40" y="9.5" dy="0.35em" transform="translate(0, 0.15625)"><tspan x="40" y="9.5" dy="0.35em">Elective</tspan></text></g></g></g><g class="links" fill="none" stroke="#000" stroke-opacity="0.2"><path class="link" id="link-0" d="M114,530.5C131.5,530.5,131.5,424.5,149,424.5" stroke-opacity="0.3" stroke-width="19"/><path class="link" id="link-1" d="M184,424.5C277,424.5,277,179.5,370,179.5" stroke-opacity="0.3" stroke-width="19"/><path class="link" id="link-2" d="M184,522.5C277,522.5,277,319.5,370,319.5" stroke-opacity="0.3" stroke-width="19"/><path class="link" id="link-3" d="M184,470.5C277,470.5,277,300.5,370,300.5" stroke-opacity="0.3" stroke-width="19"/><path class="link" id="link-4" d="M405,274.5C422.5,274.5,422.5,347.5,440,347.5" stroke-opacity="0.3" stroke-width="19"/><path class="link" id="link-5" d="M405,179.5C422.5,179.5,422.5,9.5,440,9.5" stroke-opacity="0.3" stroke-width="19"/><path class="link" id="link-6" d="M184,541.5C312,541.5,312,380.5,440,380.5" stroke-opacity="0.3" stroke-width="19"/><path class="link" id="link-7" d="M114,511.5C387.5,511.5,387.5,361.4999999999999,661,361.4999999999999" stroke-opacity="0.3" stroke-width="19"/><path class="link" id="link-8" d="M405,255.5C533,255.5,533,298.5,661,298.5" stroke-opacity="0.3" stroke-width="19"/><path class="link" id="link-9" d="M405,553.5C533,553.5,533,463.5,661,463.5" stroke-opacity="0.3" stroke-width="19"/><path class="link" id="link-10" d="M405,236.5C533,236.5,533,260.5,661,260.5" stroke-opacity="0.3" stroke-width="19"/><path class="link" id="link-11" d="M184,560.5C422.5,560.5,422.5,433.50000000000006,661,433.50000000000006" stroke-opacity="0.3" stroke-width="19"/><path class="link" id="link-12" d="M114,350.50000000000006C131.5,350.50000000000006,131.5,522.5,149,522.5" stroke-opacity="0.3" stroke-width="19"/><path class="link" id="link-13" d="M696,380.4999999999999C713.5,380.4999999999999,713.5,339.5000000000007,731,339.5000000000007" stroke-opacity="0.3" stroke-width="19"/><path class="link" id="link-14" d="M696,298.5C713.5,298.5,713.5,65.5,731,65.5" stroke-opacity="0.3" stroke-width="19"/><path class="link" id="link-15" d="M696,361.4999999999999C824,361.4999999999999,824,290.5,952,290.5" stroke-opacity="0.3" stroke-width="19"/><path class="link" id="link-16" d="M766,358.5000000000007C859,358.5000000000007,859,271.5,952,271.5" stroke-opacity="0.3" stroke-width="19"/><path class="link" id="link-17" d="M405,217.5C678.5,217.5,678.5,116.5,952,116.5" stroke-opacity="0.3" stroke-width="19"/><path class="link" id="link-18" d="M696,317.5C824,317.5,824,154.5,952,154.5" stroke-opacity="0.3" stroke-width="19"/><path class="link" id="link-19" d="M696,260.5C824,260.5,824,135.5,952,135.5" stroke-opacity="0.3" stroke-width="19"/><path class="link" id="link-20" d="M405,198.5C678.5,198.5,678.5,9.5,952,9.5" stroke-opacity="0.3" stroke-width="19"/><path class="link" id="link-21" d="M766,339.5000000000007C859,339.5000000000007,859,28.5,952,28.5" stroke-opacity="0.3" stroke-width="19"/><path class="link" id="link-22" d="M987,271.5C1004.5,271.5,1004.5,77.5,1022,77.5" stroke-opacity="0.3" stroke-width="19"/><path class="link" id="link-23" d="M1022,530.5c-18,0-16.5-321,0-321" stroke-opacity="0.3" stroke-width="19"/></g><g class="nodes" font-family="sans-serif" font-size="10"><g class="course Elective"><rect class="node" x="79" y="588" height="19" width="35" fill="#a6cee3"/><text class="classLabel" x="73" y="597.5" dy="0.35em" text-anchor="end" transform="translate(0, 0)"><tspan x="73" y="597.5" dy="0.35em">Survey of Film</tspan></text></g><g class="course Elective"><rect class="node" x="79" y="473" height="19" width="35" fill="#a6cee3"/><text class="classLabel" x="73" y="482.5" dy="0.35em" text-anchor="end" transform="translate(0, 0)"><tspan x="73" y="482.5" dy="0.35em">Calculus I</tspan></text></g><g class="course Psychology"><rect class="node" x="79" y="341.00000000000006" height="18.999999999999943" width="35" fill="#1f78b4"/><text class="classLabel" x="73" y="350.5" dy="0.35em" text-anchor="end" transform="translate(0, -5.5)"><tspan x="73" y="350.5" dy="0.35em">Cognitive</tspan><tspan x="73" y="350.5" dy="1.4500000000000002em">Psychology</tspan></text></g><g class="course Elective"><rect class="node" x="79" y="563" height="19" width="35" fill="#a6cee3"/><text class="classLabel" x="73" y="572.5" dy="0.35em" text-anchor="end" transform="translate(0, 0)"><tspan x="73" y="572.5" dy="0.35em">Human Origins</tspan></text></g><g class="course Psychology"><rect class="node" x="149" y="513" height="57" width="35" fill="#1f78b4"/><text class="classLabel" x="190" y="541.5" dy="0.35em" text-anchor="start" transform="translate(0, -5.5)"><tspan x="190" y="541.5" dy="0.35em">Elementary</tspan><tspan x="190" y="541.5" dy="1.4500000000000002em">Psychology</tspan></text></g><g class="course Elective"><rect class="node" x="149" y="585" height="19" width="35" fill="#a6cee3"/><text class="classLabel" x="190" y="594.5" dy="0.35em" text-anchor="start" transform="translate(0, -5.5)"><tspan x="190" y="594.5" dy="0.35em">Quest for</tspan><tspan x="190" y="594.5" dy="1.4500000000000002em">Human Destiny</tspan></text></g><g class="course Informatics"><rect class="node" x="149" y="461" height="19" width="35" fill="#33a02c"/><text class="classLabel" x="190" y="470.5" dy="0.35em" text-anchor="start" transform="translate(0, -5.5)"><tspan x="190" y="470.5" dy="0.35em">Statistics for</tspan><tspan x="190" y="470.5" dy="1.4500000000000002em">Business</tspan></text></g><g class="course Comp"><rect class="node" x="79" y="502" height="38" width="35" fill="#b2df8a"/><text class="classLabel" x="73" y="521" dy="0.35em" text-anchor="end" transform="translate(0, -5.5)"><tspan x="73" y="521" dy="0.35em">Intro to Comp</tspan><tspan x="73" y="521" dy="1.4500000000000002em">Sci</tspan></text></g><g class="course Informatics"><rect class="node" x="149" y="415" height="19" width="35" fill="#33a02c"/><text class="classLabel" x="190" y="424.5" dy="0.35em" text-anchor="start" transform="translate(0, -5.5)"><tspan x="190" y="424.5" dy="0.35em">Intro to</tspan><tspan x="190" y="424.5" dy="1.4500000000000002em">Informatics</tspan></text></g><g class="course Informatics"><rect class="node" x="370" y="170" height="114" width="35" fill="#33a02c"/><text class="classLabel" x="364" y="227" dy="0.35em" text-anchor="end" transform="translate(0, -5.5)"><tspan x="364" y="227" dy="0.35em">Programming</tspan><tspan x="364" y="227" dy="1.4500000000000002em">for Informatics</tspan></text></g><g class="course Elective"><rect class="node" x="370" y="587" height="19" width="35" fill="#a6cee3"/><text class="classLabel" x="364" y="596.5" dy="0.35em" text-anchor="end" transform="translate(0, -11)"><tspan x="364" y="596.5" dy="0.35em">Globalization,</tspan><tspan x="364" y="596.5" dy="1.4500000000000002em">Geographic</tspan><tspan x="364" y="596.5" dy="2.5500000000000003em">Diversity</tspan></text></g><g class="course Elective"><rect class="node" x="370" y="544" height="19" width="35" fill="#a6cee3"/><text class="classLabel" x="364" y="553.5" dy="0.35em" text-anchor="end" transform="translate(0, -5.5)"><tspan x="364" y="553.5" dy="0.35em">Elementary</tspan><tspan x="364" y="553.5" dy="1.4500000000000002em">Functions</tspan></text></g><g class="course Psychology"><rect class="node" x="370" y="291" height="38" width="35" fill="#1f78b4"/><text class="classLabel" x="364" y="310" dy="0.35em" text-anchor="end" transform="translate(0, -11)"><tspan x="364" y="310" dy="0.35em">Research</tspan><tspan x="364" y="310" dy="1.4500000000000002em">Methods in</tspan><tspan x="364" y="310" dy="2.5500000000000003em">Psychology</tspan></text></g><g class="course Informatics"><rect class="node" x="440" y="338" height="19" width="35" fill="#33a02c"/><text class="classLabel" x="481" y="347.5" dy="0.35em" text-anchor="start" transform="translate(0, -5.5)"><tspan x="481" y="347.5" dy="0.35em">Networking for</tspan><tspan x="481" y="347.5" dy="1.4500000000000002em">Informatics</tspan></text></g><g class="course Informatics"><rect class="node" x="440" y="0" height="19" width="35" fill="#33a02c"/><text class="classLabel" x="481" y="9.5" dy="0.35em" text-anchor="start" transform="translate(0, -5.5)"><tspan x="481" y="9.5" dy="0.35em">Information</tspan><tspan x="481" y="9.5" dy="1.4500000000000002em">Visualization</tspan></text></g><g class="course Informatics"><rect class="node" x="440" y="233" height="19" width="35" fill="#33a02c"/><text class="classLabel" x="481" y="242.5" dy="0.35em" text-anchor="start" transform="translate(0, 0)"><tspan x="481" y="242.5" dy="0.35em">Ergonomics</tspan></text></g><g class="course Psychology"><rect class="node" x="440" y="371" height="19" width="35" fill="#1f78b4"/><text class="classLabel" x="481" y="380.5" dy="0.35em" text-anchor="start" transform="translate(0, -5.5)"><tspan x="481" y="380.5" dy="0.35em">Developmental</tspan><tspan x="481" y="380.5" dy="1.4500000000000002em">Science</tspan></text></g><g class="course Comp"><rect class="node" x="661" y="351.9999999999999" height="38.000000000000114" width="35" fill="#b2df8a"/><text class="classLabel" x="655" y="370.99999999999994" dy="0.35em" text-anchor="end" transform="translate(0, -5.500000000000057)"><tspan x="655" y="370.99999999999994" dy="0.35em">Discrete</tspan><tspan x="655" y="370.99999999999994" dy="1.4500000000000002em">Structures</tspan></text></g><g class="course Informatics"><rect class="node" x="661" y="289" height="38" width="35" fill="#33a02c"/><text class="classLabel" x="655" y="308" dy="0.35em" text-anchor="end" transform="translate(0, -16.5)"><tspan x="655" y="308" dy="0.35em"/><tspan x="655" y="308" dy="1.4500000000000002em">Human-Computer</tspan><tspan x="655" y="308" dy="2.5500000000000003em">Interaction</tspan></text></g><g class="course Elective"><rect class="node" x="661" y="454" height="19" width="35" fill="#a6cee3"/><text class="classLabel" x="655" y="463.5" dy="0.35em" text-anchor="end" transform="translate(0, 0)"><tspan x="655" y="463.5" dy="0.35em">Calculus</tspan></text></g><g class="course Informatics"><rect class="node" x="661" y="251" height="19" width="35" fill="#33a02c"/><text class="classLabel" x="655" y="260.5" dy="0.35em" text-anchor="end" transform="translate(0, -5.5)"><tspan x="655" y="260.5" dy="0.35em">Database</tspan><tspan x="655" y="260.5" dy="1.4500000000000002em">Management</tspan></text></g><g class="course Psychology"><rect class="node" x="661" y="424.00000000000006" height="18.999999999999943" width="35" fill="#1f78b4"/><text class="classLabel" x="655" y="433.5" dy="0.35em" text-anchor="end" transform="translate(0, -5.5)"><tspan x="655" y="433.5" dy="0.35em">Social</tspan><tspan x="655" y="433.5" dy="1.4500000000000002em">Psychology</tspan></text></g><g class="course Elective"><rect class="node" x="731" y="559" height="19" width="35" fill="#a6cee3"/><text class="classLabel" x="772" y="568.5" dy="0.35em" text-anchor="start" transform="translate(0, -5.5)"><tspan x="772" y="568.5" dy="0.35em">Origins of Life</tspan><tspan x="772" y="568.5" dy="1.4500000000000002em">in the Universe</tspan></text></g><g class="course Comp"><rect class="node" x="731" y="330.0000000000007" height="37.99999999999932" width="35" fill="#b2df8a"/><text class="classLabel" x="772" y="349.00000000000034" dy="0.35em" text-anchor="start" transform="translate(0, 3.410605131648481e-13)"><tspan x="772" y="349.00000000000034" dy="0.35em">Data Structures</tspan></text></g><g class="course Informatics"><rect class="node" x="731" y="56" height="19" width="35" fill="#33a02c"/><text class="classLabel" x="772" y="65.5" dy="0.35em" text-anchor="start" transform="translate(0, -5.5)"><tspan x="772" y="65.5" dy="0.35em">Research</tspan><tspan x="772" y="65.5" dy="1.4500000000000002em">Methods in HCI</tspan></text></g><g class="course Elective"><rect class="node" x="731" y="585" height="19" width="35" fill="#a6cee3"/><text class="classLabel" x="772" y="594.5" dy="0.35em" text-anchor="start" transform="translate(0, -5.5)"><tspan x="772" y="594.5" dy="0.35em">The Meaning of</tspan><tspan x="772" y="594.5" dy="1.4500000000000002em">Life</tspan></text></g><g class="course Comp"><rect class="node" x="952" y="262" height="38" width="35" fill="#b2df8a"/><text class="classLabel" x="946" y="281" dy="0.35em" text-anchor="end" transform="translate(0, 0)"><tspan x="946" y="281" dy="0.35em">Algorithms</tspan></text></g><g class="course Informatics"><rect class="node" x="952" y="107" height="57" width="35" fill="#33a02c"/><text class="classLabel" x="946" y="135.5" dy="0.35em" text-anchor="end" transform="translate(0, -5.5)"><tspan x="946" y="135.5" dy="0.35em">Informatics</tspan><tspan x="946" y="135.5" dy="1.4500000000000002em">Project</tspan></text></g><g class="course Comp"><rect class="node" x="952" y="78" height="19" width="35" fill="#b2df8a"/><text class="classLabel" x="946" y="87.5" dy="0.35em" text-anchor="end" transform="translate(0, -5.5)"><tspan x="946" y="87.5" dy="0.35em">Knowledge</tspan><tspan x="946" y="87.5" dy="1.4500000000000002em">Discovery</tspan></text></g><g class="course Informatics"><rect class="node" x="952" y="0" height="38.000000000000114" width="35" fill="#33a02c"/><text class="classLabel" x="946" y="19.000000000000057" dy="0.35em" text-anchor="end" transform="translate(0, -10.999999999999943)"><tspan x="946" y="19.000000000000057" dy="0.35em">Network</tspan><tspan x="946" y="19.000000000000057" dy="1.4500000000000002em">Security and</tspan><tspan x="946" y="19.000000000000057" dy="2.5500000000000003em">Privacy</tspan></text></g><g class="course Elective"><rect class="node" x="952" y="369" height="19" width="35" fill="#a6cee3"/><text class="classLabel" x="946" y="378.5" dy="0.35em" text-anchor="end" transform="translate(0, -5.5)"><tspan x="946" y="378.5" dy="0.35em">Minds and</tspan><tspan x="946" y="378.5" dy="1.4500000000000002em">Brains</tspan></text></g><g class="course Comp"><rect class="node" x="1022" y="68" height="19" width="35" fill="#b2df8a"/><text class="classLabel" x="1063" y="77.5" dy="0.35em" text-anchor="start" transform="translate(0, -5.5)"><tspan x="1063" y="77.5" dy="0.35em">Artificial</tspan><tspan x="1063" y="77.5" dy="1.4500000000000002em">Intelligence</tspan></text></g><g class="course Elective"><rect class="node" x="1022" y="521" height="19" width="35" fill="#a6cee3"/><text class="classLabel" x="1063" y="530.5" dy="0.35em" text-anchor="start" transform="translate(0, -5.5)"><tspan x="1063" y="530.5" dy="0.35em">Foundations of</tspan><tspan x="1063" y="530.5" dy="1.4500000000000002em">GIS</tspan></text></g><g class="course Elective"><rect class="node" x="1022" y="200" height="19" width="35" fill="#a6cee3"/><text class="classLabel" x="1063" y="209.5" dy="0.35em" text-anchor="start" transform="translate(0, -5.5)"><tspan x="1063" y="209.5" dy="0.35em">Geographic</tspan><tspan x="1063" y="209.5" dy="1.4500000000000002em">Visualization</tspan></text></g><g class="course Elective"><rect class="node" x="1022" y="585" height="19" width="35" fill="#a6cee3"/><text class="classLabel" x="1063" y="594.5" dy="0.35em" text-anchor="start" transform="translate(0, -5.5)"><tspan x="1063" y="594.5" dy="0.35em">Matters of Life</tspan><tspan x="1063" y="594.5" dy="1.4500000000000002em">and Death</tspan></text></g></g><defs><marker id="arrowhead" refX="5" refY="6" markerWidth="13" markerHeight="12" orient="0" fill="#333"><path d="M2,2 L2,13 L8,7 L2,2"/></marker></defs></g></svg>