<?xml version="1.0" encoding="utf-8"?>
<!-- Generator: Adobe Illustrator 19.1.1, SVG Export Plug-In . SVG Version: 6.00 Build 0)  -->
<svg version="1.1" id="Layer_1" xmlns="http://www.w3.org/2000/svg" xmlns:xlink="http://www.w3.org/1999/xlink" x="0px" y="0px"
	 viewBox="294 9 1200 775" style="enable-background:new 294 9 1200 775;" xml:space="preserve">
<style type="text/css">
	.st0{fill:#FFFFFF;}
	.st1{fill:none;}
	.st2{opacity:0.5;fill:#333333;enable-background:new    ;}
	.st3{fill:#333333;}
	.st4{font-family:'Arial-BoldMT';}
	.st5{font-size:12px;}
	.st6{display:none;fill:none;stroke:#000000;}
	.st7{fill:none;stroke:#DDDDDD;stroke-dasharray:2,3;}
	.st8{font-family:'ArialMT';}
	.st9{font-size:10px;}
	.st10{fill:none;stroke:#000000;}
	.st11{font-size:16px;}
	.st12{font-size:14px;}
	.st13{fill:#33A02C;stroke:#333333;}
	.st14{font-size:11px;}
	.st15{fill:#B2DF8A;stroke:#333333;}
	.st16{fill:#1F78B4;stroke:#333333;}
	.st17{fill:#A6CEE3;stroke:#333333;}
	.st18{fill:none;stroke:#333333;stroke-width:19;stroke-opacity:0.15;}
	.st19{fill:#A6CEE3;stroke:#333333;stroke-opacity:0.75;}
	.st20{fill:#1F78B4;stroke:#333333;stroke-opacity:0.75;}
	.st21{fill:#33A02C;stroke:#333333;stroke-opacity:0.75;}
	.st22{fill:#B2DF8A;stroke:#333333;stroke-opacity:0.75;}
	.st23{opacity:0.5;}
	.st24{fill:none;stroke:#333333;stroke-miterlimit:10;}
</style>
<g transform="translate(60,150)">
	<g>
		<rect x="234" y="-141" class="st0" width="1200" height="775"/>
		<g id="axis--school" transform="translate(0,-18.75)">
			<path class="st1" d=""/>
			<path marker-end="url(#arrowhead)" class="st2" d="M1404.5,9"/>
			<text transform="matrix(1 0 0 1 284 7.84)" class="st3 st4 st5">Time</text>
		</g>
		<g id="axis--year" transform="translate(0, 0)">
			<path class="st6" d="M294.5,609V9.5h1135V609"/>
			<g transform="translate(131.5,0)">
				<line class="st7" x1="294" y1="9" x2="294" y2="609"/>
				<text transform="matrix(1 0 0 1 260.0913 -36)" class="st8 st9">Freshman Year</text>
			</g>
			<g transform="translate(422.5,0)">
				<line class="st7" x1="294" y1="9" x2="294" y2="609"/>
				<text transform="matrix(1 0 0 1 268.1504 -36)" class="st8 st9">Sophomore</text>
			</g>
			<g transform="translate(713.5,0)">
				<line class="st7" x1="294" y1="9" x2="294" y2="609"/>
				<text transform="matrix(1 0 0 1 280.3818 -36)" class="st8 st9">Junior</text>
			</g>
			<g transform="translate(1004.5,0)">
				<line class="st7" x1="294" y1="9" x2="294" y2="609"/>
				<text transform="matrix(1 0 0 1 279.5469 -36)" class="st8 st9">Senior</text>
			</g>
		</g>
		<g>
			<g id="axis--Freshman" transform="translate(44,-25.3125)">
				<path class="st6" d="M294.5,9v0.5h175V9"/>
				<g transform="translate(52.5,0)">
					<line class="st7" x1="294" y1="9" x2="294" y2="9"/>
					<text transform="matrix(1 0 0 1 268.4336 3)" class="st8 st9">1 Semester</text>
				</g>
				<g transform="translate(122.5,0)">
					<line class="st7" x1="294" y1="9" x2="294" y2="9"/>
					<text transform="matrix(1 0 0 1 268.4336 3)" class="st8 st9">2 Semester</text>
				</g>
			</g>
			<g id="axis--Sophomore" transform="translate(335,-25.3125)">
				<path class="st6" d="M294.5,9v0.5h175V9"/>
				<g transform="translate(52.5,0)">
					<line class="st7" x1="294" y1="9" x2="294" y2="9"/>
					<text transform="matrix(1 0 0 1 287.3301 3)" class="st8 st9">1st</text>
				</g>
				<g transform="translate(122.5,0)">
					<line class="st7" x1="294" y1="9" x2="294" y2="9"/>
					<text transform="matrix(1 0 0 1 285.6577 3)" class="st8 st9">2nd</text>
				</g>
			</g>
			<g id="axis--Junior" transform="translate(626,-25.3125)">
				<path class="st6" d="M294.5,9v0.5h175V9"/>
				<g transform="translate(52.5,0)">
					<line class="st7" x1="294" y1="9" x2="294" y2="9"/>
					<text transform="matrix(1 0 0 1 287.3301 3)" class="st8 st9">1st</text>
				</g>
				<g transform="translate(122.5,0)">
					<line class="st7" x1="294" y1="9" x2="294" y2="9"/>
					<text transform="matrix(1 0 0 1 285.6577 3)" class="st8 st9">2nd</text>
				</g>
			</g>
			<g id="axis--Senior" transform="translate(917,-25.3125)">
				<path class="st6" d="M294.5,9v0.5h175V9"/>
				<g transform="translate(52.5,0)">
					<line class="st7" x1="294" y1="9" x2="294" y2="9"/>
					<text transform="matrix(1 0 0 1 287.3301 3)" class="st8 st9">1st</text>
				</g>
				<g transform="translate(122.5,0)">
					<line class="st7" x1="294" y1="9" x2="294" y2="9"/>
					<text transform="matrix(1 0 0 1 285.6577 3)" class="st8 st9">2nd</text>
				</g>
			</g>
		</g>
		<g transform="translate(-15, 0)">
			<path class="st10" d="M288,609.5h6.5V9.5H288"/>
			<g transform="translate(0,600.5)">
				<line class="st10" x1="294" y1="9" x2="288" y2="9"/>
				<text transform="matrix(1 0 0 1 262.7539 12.2)" class="st8 st9">1000</text>
			</g>
			<g transform="translate(0,450.5)">
				<line class="st10" x1="294" y1="9" x2="288" y2="9"/>
				<text transform="matrix(1 0 0 1 262.7539 12.2)" class="st8 st9">2000</text>
			</g>
			<g transform="translate(0,300.5)">
				<line class="st10" x1="294" y1="9" x2="288" y2="9"/>
				<text transform="matrix(1 0 0 1 262.7539 12.2)" class="st8 st9">3000</text>
			</g>
			<g transform="translate(0,150.5)">
				<line class="st10" x1="294" y1="9" x2="288" y2="9"/>
				<text transform="matrix(1 0 0 1 262.7539 12.2)" class="st8 st9">4000</text>
			</g>
			<g transform="translate(0,0.5)">
				<line class="st10" x1="294" y1="9" x2="288" y2="9"/>
				<text transform="matrix(1 0 0 1 262.7539 12.2)" class="st8 st9">5000</text>
			</g>
			<text transform="matrix(1 0 0 1 300 17.52)" class="st3 st4 st5">Course Level +-500</text>
		</g>
		<g>
			<text transform="matrix(1 0 0 1 284 -115.4)" class="st3 st4 st11">My College Courses and the Prerequisite Relationships Between Them.</text>
			<text transform="matrix(1 0 0 1 284 -93.9437)" class="st8 st12">Each rectangle is a class I took, positioned in the semester I took it. The links between classes show the</text>
			<text transform="matrix(1 0 0 1 284 -78.5438)" class="st8 st12">requirements and progression to take higher level classes.</text>
			<text transform="matrix(1 0 0 1 284 -58.9375)" class="st8 st9">- Ryan Larson</text>
		</g>
		<text transform="matrix(1 0 0 1 1246 -116.8)" class="st4 st5">Course Credit</text>
		<g>
			<g transform="translate(952,-115)">
				<rect x="294" y="9" class="st13" width="35" height="19"/>
				<text transform="matrix(1 0 0 1 234.2085 16.2094)" class="st8 st14">Informatics</text>
				<text transform="matrix(1 0 0 1 260.4946 28.3094)" class="st8 st14">Major</text>
			</g>
			<g transform="translate(1022,-115)">
				<rect x="294" y="9" class="st15" width="35" height="19"/>
				<text transform="matrix(1 0 0 1 334 16.2094)" class="st8 st14">Comp Sci</text>
				<text transform="matrix(1 0 0 1 334 28.3094)" class="st8 st14">Minor</text>
			</g>
			<g transform="translate(952,-89)">
				<rect x="294" y="9" class="st16" width="35" height="19"/>
				<text transform="matrix(1 0 0 1 231.7485 16.2094)" class="st8 st14">Psychology</text>
				<text transform="matrix(1 0 0 1 260.4946 28.3094)" class="st8 st14">Minor</text>
			</g>
			<g transform="translate(1022,-89)">
				<rect x="294" y="9" class="st17" width="35" height="19"/>
				<text transform="matrix(1 0 0 1 334 22.2562)" class="st8 st14">Elective</text>
			</g>
		</g>
	</g>
	<g>
		<path id="link-0" class="st18" d="M408,539.5c17.5,0,17.5-106,35-106"/>
		<path id="link-1" class="st18" d="M478,433.5c93,0,93-245,186-245"/>
		<path id="link-2" class="st18" d="M478,531.5c93,0,93-203,186-203"/>
		<path id="link-3" class="st18" d="M478,479.5c93,0,93-170,186-170"/>
		<path id="link-4" class="st18" d="M699,283.5c17.5,0,17.5,73,35,73"/>
		<path id="link-5" class="st18" d="M699,188.5c17.5,0,17.5-170,35-170"/>
		<path id="link-6" class="st18" d="M478,550.5c128,0,128-161,256-161"/>
		<path id="link-7" class="st18" d="M408,520.5c273.5,0,273.5-150,547-150"/>
		<path id="link-8" class="st18" d="M699,264.5c128,0,128,43,256,43"/>
		<path id="link-9" class="st18" d="M699,562.5c128,0,128-90,256-90"/>
		<path id="link-10" class="st18" d="M699,245.5c128,0,128,24,256,24"/>
		<path id="link-11" class="st18" d="M478,569.5c238.5,0,238.5-127,477-127"/>
		<path id="link-12" class="st18" d="M408,359.5c17.5,0,17.5,172,35,172"/>
		<path id="link-13" class="st18" d="M990,389.5c17.5,0,17.5-41,35-41"/>
		<path id="link-14" class="st18" d="M990,307.5c17.5,0,17.5-233,35-233"/>
		<path id="link-15" class="st18" d="M990,370.5c128,0,128-71,256-71"/>
		<path id="link-16" class="st18" d="M1060,367.5c93,0,93-87,186-87"/>
		<path id="link-17" class="st18" d="M699,226.5c273.5,0,273.5-101,547-101"/>
		<path id="link-18" class="st18" d="M990,326.5c128,0,128-163,256-163"/>
		<path id="link-19" class="st18" d="M990,269.5c128,0,128-125,256-125"/>
		<path id="link-20" class="st18" d="M699,207.5c273.5,0,273.5-189,547-189"/>
		<path id="link-21" class="st18" d="M1060,348.5c93,0,93-311,186-311"/>
		<path id="link-22" class="st18" d="M1281,280.5c17.5,0,17.5-194,35-194"/>
		<path id="link-23" class="st18" d="M1316,539.5c-18,0-16.5-321,0-321"/>
	</g>
	<g>
		<g>
			<rect x="373" y="597" class="st19" width="35" height="19"/>
			<text transform="matrix(1 0 0 1 303.0986 609.625)" class="st8 st9">Survey of Film</text>
		</g>
		<g>
			<rect x="373" y="482" class="st19" width="35" height="19"/>
			<text transform="matrix(1 0 0 1 323.0938 494.625)" class="st8 st9">Calculus I</text>
		</g>
		<g>
			<rect x="373" y="350" class="st20" width="35" height="19"/>
			<text transform="matrix(1 0 0 1 325.3105 357.125)" class="st8 st9">Cognitive</text>
			<text transform="matrix(1 0 0 1 315.8623 368.125)" class="st8 st9">Psychology</text>
		</g>
		<g>
			<rect x="373" y="572" class="st19" width="35" height="19"/>
			<text transform="matrix(1 0 0 1 300.3105 584.625)" class="st8 st9">Human Origins</text>
		</g>
		<g>
			<rect x="443" y="522" class="st20" width="35" height="57"/>
			<text transform="matrix(1 0 0 1 484 548.125)" class="st8 st9">Elementary</text>
			<text transform="matrix(1 0 0 1 484 559.125)" class="st8 st9">Psychology</text>
		</g>
		<g>
			<rect x="443" y="594" class="st19" width="35" height="19"/>
			<text transform="matrix(1 0 0 1 484 601.125)" class="st8 st9">Quest for</text>
			<text transform="matrix(1 0 0 1 484 612.125)" class="st8 st9">Human Destiny</text>
		</g>
		<g>
			<rect x="443" y="470" class="st21" width="35" height="19"/>
			<text transform="matrix(1 0 0 1 484 477.125)" class="st8 st9">Statistics for</text>
			<text transform="matrix(1 0 0 1 484 488.125)" class="st8 st9">Business</text>
		</g>
		<g>
			<rect x="373" y="511" class="st22" width="35" height="38"/>
			<text transform="matrix(1 0 0 1 306.4189 527.625)" class="st8 st9">Intro to Comp</text>
			<text transform="matrix(1 0 0 1 353.1084 538.625)" class="st8 st9">Sci</text>
		</g>
		<g>
			<rect x="443" y="424" class="st21" width="35" height="19"/>
			<text transform="matrix(1 0 0 1 484 431.125)" class="st8 st9">Intro to</text>
			<text transform="matrix(1 0 0 1 484 442.125)" class="st8 st9">Informatics</text>
		</g>
		<g>
			<rect x="664" y="179" class="st21" width="35" height="114"/>
			<text transform="matrix(1 0 0 1 597.9805 233.625)" class="st8 st9">Programming</text>
			<text transform="matrix(1 0 0 1 594.6504 244.625)" class="st8 st9">for Informatics</text>
		</g>
		<g>
			<rect x="664" y="596" class="st19" width="35" height="19"/>
			<text transform="matrix(1 0 0 1 597.4092 597.625)" class="st8 st9">Globalization,</text>
			<text transform="matrix(1 0 0 1 606.3008 608.625)" class="st8 st9">Geographic</text>
			<text transform="matrix(1 0 0 1 619.665 619.625)" class="st8 st9">Diversity</text>
		</g>
		<g>
			<rect x="664" y="553" class="st19" width="35" height="19"/>
			<text transform="matrix(1 0 0 1 607.4238 560.125)" class="st8 st9">Elementary</text>
			<text transform="matrix(1 0 0 1 614.6455 571.125)" class="st8 st9">Functions</text>
		</g>
		<g>
			<rect x="664" y="300" class="st20" width="35" height="38"/>
			<text transform="matrix(1 0 0 1 615.2021 311.125)" class="st8 st9">Research</text>
			<text transform="matrix(1 0 0 1 609.084 322.125)" class="st8 st9">Methods in</text>
			<text transform="matrix(1 0 0 1 606.8623 333.125)" class="st8 st9">Psychology</text>
		</g>
		<g>
			<rect x="734" y="347" class="st21" width="35" height="19"/>
			<text transform="matrix(1 0 0 1 775 354.125)" class="st8 st9">Networking for</text>
			<text transform="matrix(1 0 0 1 775 365.125)" class="st8 st9">Informatics</text>
		</g>
		<g>
			<rect x="734" y="9" class="st21" width="35" height="19"/>
			<text transform="matrix(1 0 0 1 775 16.125)" class="st8 st9">Information</text>
			<text transform="matrix(1 0 0 1 775 27.125)" class="st8 st9">Visualization</text>
		</g>
		<g>
			<rect x="734" y="242" class="st21" width="35" height="19"/>
			<text transform="matrix(1 0 0 1 775 254.625)" class="st8 st9">Ergonomics</text>
		</g>
		<g>
			<rect x="734" y="380" class="st20" width="35" height="19"/>
			<text transform="matrix(1 0 0 1 775 387.125)" class="st8 st9">Developmental</text>
			<text transform="matrix(1 0 0 1 775 398.125)" class="st8 st9">Science</text>
		</g>
		<g>
			<rect x="955" y="361" class="st22" width="35" height="38"/>
			<text transform="matrix(1 0 0 1 912.3252 377.625)" class="st8 st9">Discrete</text>
			<text transform="matrix(1 0 0 1 903.4287 388.625)" class="st8 st9">Structures</text>
		</g>
		<g>
			<rect x="955" y="298" class="st21" width="35" height="38"/>
			<text transform="matrix(1 0 0 1 869.5273 314.625)" class="st8 st9">Human-Computer</text>
			<text transform="matrix(1 0 0 1 902.3057 325.625)" class="st8 st9">Interaction</text>
		</g>
		<g>
			<rect x="955" y="463" class="st19" width="35" height="19"/>
			<text transform="matrix(1 0 0 1 910.6504 475.625)" class="st8 st9">Calculus</text>
		</g>
		<g>
			<rect x="955" y="260" class="st21" width="35" height="19"/>
			<text transform="matrix(1 0 0 1 906.1924 267.125)" class="st8 st9">Database</text>
			<text transform="matrix(1 0 0 1 890.6309 278.125)" class="st8 st9">Management</text>
		</g>
		<g>
			<rect x="955" y="433" class="st20" width="35" height="19"/>
			<text transform="matrix(1 0 0 1 921.7637 440.125)" class="st8 st9">Social</text>
			<text transform="matrix(1 0 0 1 897.8623 451.125)" class="st8 st9">Psychology</text>
		</g>
		<g>
			<rect x="1025" y="568" class="st19" width="35" height="19"/>
			<text transform="matrix(1 0 0 1 1066 575.125)" class="st8 st9">Origins of Life</text>
			<text transform="matrix(1 0 0 1 1066 586.125)" class="st8 st9">in the Universe</text>
		</g>
		<g>
			<rect x="1025" y="339" class="st22" width="35" height="38"/>
			<text transform="matrix(1 0 0 1 1066 361.125)" class="st8 st9">Data Structures</text>
		</g>
		<g>
			<rect x="1025" y="65" class="st21" width="35" height="19"/>
			<text transform="matrix(1 0 0 1 1066 72.125)" class="st8 st9">Research</text>
			<text transform="matrix(1 0 0 1 1066 83.125)" class="st8 st9">Methods in HCI</text>
		</g>
		<g>
			<rect x="1025" y="594" class="st19" width="35" height="19"/>
			<text transform="matrix(1 0 0 1 1066 601.125)" class="st8 st9">The Meaning of</text>
			<text transform="matrix(1 0 0 1 1066 612.125)" class="st8 st9">Life</text>
		</g>
		<g>
			<rect x="1246" y="271" class="st22" width="35" height="38"/>
			<text transform="matrix(1 0 0 1 1192.7637 293.125)" class="st8 st9">Algorithms</text>
		</g>
		<g>
			<rect x="1246" y="116" class="st21" width="35" height="57"/>
			<text transform="matrix(1 0 0 1 1191.0986 142.125)" class="st8 st9">Informatics</text>
			<text transform="matrix(1 0 0 1 1208.877 153.125)" class="st8 st9">Project</text>
		</g>
		<g>
			<rect x="1246" y="87" class="st22" width="35" height="19"/>
			<text transform="matrix(1 0 0 1 1190.5176 94.125)" class="st8 st9">Knowledge</text>
			<text transform="matrix(1 0 0 1 1196.1035 105.125)" class="st8 st9">Discovery</text>
		</g>
		<g>
			<rect x="1246" y="9" class="st21" width="35" height="38"/>
			<text transform="matrix(1 0 0 1 1203.3252 20.125)" class="st8 st9">Network</text>
			<text transform="matrix(1 0 0 1 1184.4141 31.125)" class="st8 st9">Security and</text>
			<text transform="matrix(1 0 0 1 1207.2168 42.125)" class="st8 st9">Privacy</text>
		</g>
		<g>
			<rect x="1246" y="378" class="st19" width="35" height="19"/>
			<text transform="matrix(1 0 0 1 1193.8623 385.125)" class="st8 st9">Minds and</text>
			<text transform="matrix(1 0 0 1 1211.6553 396.125)" class="st8 st9">Brains</text>
		</g>
		<g>
			<rect x="1316" y="77" class="st22" width="35" height="19"/>
			<text transform="matrix(1 0 0 1 1357 84.125)" class="st8 st9">Artificial</text>
			<text transform="matrix(1 0 0 1 1357 95.125)" class="st8 st9">Intelligence</text>
		</g>
		<g>
			<rect x="1316" y="530" class="st19" width="35" height="19"/>
			<text transform="matrix(1 0 0 1 1357 537.125)" class="st8 st9">Foundations of</text>
			<text transform="matrix(1 0 0 1 1357 548.125)" class="st8 st9">GIS</text>
		</g>
		<g>
			<rect x="1316" y="209" class="st19" width="35" height="19"/>
			<text transform="matrix(1 0 0 1 1357 216.125)" class="st8 st9">Geographic</text>
			<text transform="matrix(1 0 0 1 1357 227.125)" class="st8 st9">Visualization</text>
		</g>
		<g>
			<rect x="1316" y="594" class="st19" width="35" height="19"/>
			<text transform="matrix(1 0 0 1 1357 601.125)" class="st8 st9">Matters of Life</text>
			<text transform="matrix(1 0 0 1 1357 612.125)" class="st8 st9">and Death</text>
		</g>
	</g>
</g>
<g class="st23">
	<g>
		<line class="st24" x1="375.9" y1="136.3" x2="1456.1" y2="136.3"/>
		<g>
			<polygon class="st3" points="1455,140 1461.5,136.3 1455,132.5 			"/>
		</g>
	</g>
</g>
</svg>
